<svg xmlns="http://www.w3.org/2000/svg" viewBox="0 0 287.203 394.06"><path d="M.202 0s-.455 279.081 0 304.678c.456 25.595 27.726 38.196 27.726 38.196l114.596 51.185 119.943-51.185s24.857-14.048 24.735-37.434c-.126-23.386 0-305.44 0-305.44h-287z" fill="#b19831"/><path d="M11.202 15.014s-.421 260.748 0 284.409c.422 23.659 25.476 35.308 25.476 35.308l105.929 47.314 110.872-47.314s22.836-12.986 22.723-34.603c-.116-21.617 0-285.114 0-285.114h-265z" fill="#0e2674"/><path d="M234.528 287.3c.628-15.692 5.336-147.522 5.336-147.522l.628-39.861s-1.882-24.482-9.417-38.921c-7.531-14.439-16.005-16.949-16.005-16.949s-16.949-8.475-27.309-2.198c-8.161 6.907-1.255 20.715-1.255 20.715s7.534 8.161 8.16 20.718c.629 12.553-6.278 8.787-6.278 8.787l-9.103-2.824s-16.634-2.826-21.028-2.826c-4.395 0 .627-2.823.627-2.823s13.81-4.395 19.147-15.381c5.336-10.987 1.882-21.029 1.882-21.029s-3.452-15.381-18.518-19.774c-15.067-4.395-29.191 4.079-29.191 4.079s-15.066 11.927-13.185 30.133c1.886 18.205 15.381 22.598 15.381 22.598s-1.883 2.512-9.416 2.198c-10.358 2.826-16.006 7.219-16.006 7.219s-1.257.628-4.395-4.081c-3.138-4.708 1.256-16.32 1.256-16.32s10.987-13.183 9.73-20.715c-1.254-7.533-11.613-11.301-11.613-11.301S91.089 39.34 80.73 46.873C70.372 54.406 65.665 68.53 61.898 81.085c-3.766 12.554-2.785 47.984-2.785 47.984l-1.923-2.159-3.021 2.275s-1.412-13.064.196-20.479c1.346-6.204 3.453-26.051 3.453-26.051s2.824-16.637.628-26.682C56.248 45.93 54.68 41.849 54.68 41.849l-1.256 9.103s-1.256 4.081-2.825-.941c-1.57-5.023-.942-26.68-.942-26.68l-7.534 10.986s-6.904 9.73.628 28.248c2.198 6.278-4.393 5.965-4.393 5.965s3.451 7.847 4.707 16.006c1.256 8.161-1.256 17.265-2.198 22.6-.942 5.335.316 21.971.316 21.971l-4.081-.628-6.278 4.708 7.572 8.592s-3.296 8.591 7.297 17.185c6.474 4.356 13.693 3.099 13.693 3.099s4.708 90.084 5.022 116.446c1.256 11.927.942 19.462-1.884 27.307-2.824 7.847-8.788 19.462-8.788 19.462s21.657-8.475 27.935-26.679c6.276-18.206 2.824-32.016 2.824-32.016l-4.394-75.332 1.882 21.974 6.279 58.695s13.809-22.916 11.612-44.572c-2.198-21.657-10.67-54.3-10.67-54.3l5.964 21.031 7.217 29.188 4.081-25.737s3.453 13.497 4.708 21.972c1.257 8.475.941 23.227.941 23.227l-5.649 52.73s.942 21.971-6.278 27.935c-7.218 5.964-7.532 10.673-7.532 10.673s11.926 3.452 24.169-3.139c12.24-6.59 12.553-3.766 12.553-3.766s5.022 3.138 13.81 3.138c8.789 0 12.557-.314 12.557-.314l-.314 3.451s-3.138 5.965 8.474 6.593c3.139 2.512 5.651 2.512 7.532 5.336 3.453 5.023 19.146 2.824 19.146 2.824s1.257-8.16-13.497-14.753c-4.394-3.764-.627-6.904-.627-6.904s6.906-4.708 8.788-9.73c1.884-5.022 6.593-15.38 7.848-43.941 1.256-28.564-.942-70.938-.942-70.938l2.826 15.381 12.554-42.687s-5.336 21.656-9.101 48.649c-3.767 26.993 10.984 44.884 10.984 44.884l8.475-72.819-5.336 76.588s-2.199 21.342 5.022 32.326c7.219 10.987 28.248 21.032 28.248 21.032s-11.926-22.283-11.297-37.978z"/><path d="M188.466 294.208s-4.001 25.186-7.53 26.836c-3.533 1.646-3.296.704-3.296.704s-.706-14.83-.236-22.363c.471-7.532.236-41.902.236-48.26 0-6.355-.236-13.181-.706-25.658-.471-12.476 9.181-46.375 9.181-46.375s3.062 12.243 4.708 47.081c1.646 34.842-2.357 68.035-2.357 68.035zm-81.684-152.544s.235 32.957 0 46.138c-.237 13.185 7.767 31.78 7.767 31.78l1.648-19.304s1.415-18.597.942-38.607c-.471-20.007-10.357-20.007-10.357-20.007zm67.326-39.707s6.747-10.2-.47-11.298c-7.221-1.101-18.049-2.198-18.049-2.198s5.336 1.256 1.097 3.924c-4.237 2.666-10.827 2.509-10.827 2.509s-11.143-1.727-13.654-2.509c-2.51-.787-5.807-1.099-5.807-1.099s-3.451-.785-9.416 1.567c-5.964 2.355-7.69 7.847-7.69 7.847l2.039 3.924 6.28 5.964 18.046 5.178 18.205 9.731s2.039-6.592 2.981-6.749c-2.039-1.413-18.047-12.398-18.047-12.398l20.872 7.218s2.353-4.707 3.295-5.649c-2.981-1.256-20.243-6.592-20.243-6.592s12.711.942 17.419.942c4.711.002 13.969-.312 13.969-.312z" fill="#350d36"/><path d="M151.746 296.089l5.179 30.366s-11.536 3.063-26.837-3.293c-2.119-.942-10.593-4.238-2.826-15.068 14.125-13.418 24.484-12.005 24.484-12.005zm-29.664 18.833s-.235-.943.471-3.531c.707-2.591-1.882-.942-1.882-.942s-3.766 1.882-6.828 3.53c-3.059 1.648-2.941 4.591-3.059 6.122-3.884 1.293-11.181 6.825-11.77 7.534-.586.706-1.296 1.175-2.471 4.471.824.825 7.179 1.178 7.179 1.178s4.59.706 6.593-1.648c1.998-2.353 6.59-3.767 6.59-3.767s6.59-.352 6.119-6.121c-1.295-3.059-.942-6.826-.942-6.826zm59.559 22.836l-7.18-5.063s-3.647-2.826-3.414-8.122c.236-5.296.472-28.13.472-28.13l.235-9.534s-3.294 2.471-4.944 3.06c-1.646.588-7.415 3.177-9.652 3.649-2.237.47-2.47 2.706-2.47 2.706l.353 4.472 15.066-1.884s.47.942 0 .942c-2.707.472-12.477 6.71-12.477 6.71s.237 8.239.942 10.241c.707 2 .589 10.829.118 11.536-.471.705-.941 3.649-.941 3.649s-.942 4.823 2.588 4.471c3.531-.353 8.24 2.237 8.24 2.237l7.769 5.886s8.827 4.473 12.358 2.355c-2.236-7.534-7.063-9.181-7.063-9.181zm-7.298-45.201l1.177-101.223s0-8.006-6.119-12.95c-6.121-4.942-16.244-4.942-16.244-4.942s-18.363-1.414-24.719-.471c-6.356.942-7.767 6.589-7.767 6.589l-4.002 43.551-4.002 40.021-3.296 35.545-1.881 19.54s3.53-10.123 21.655-17.89c16.009-7.297 33.664-10.83 33.664-10.83l6.357-1.177-3.06-42.138-5.179-65.914 1.646 3.53 11.77 108.759zM49.108 160.025l4.473-4.943-8.71.234 4.237 4.709zm45.668 46.846l-10.123-50.847-.47-5.179 12.24 35.309 5.885 20.717s6.121-8.946 2.826-23.071c-3.295-14.123-7.534-23.775-7.534-23.775l-4.237-15.538-30.603 16.714 2.12 38.371 2.354 48.966s.706 16.948 1.882 38.372c1.177 21.421-8.475 29.423-8.475 29.423s17.891-2.587 20.482-28.481c2.588-25.894-.707-49.671-.707-49.671L76.649 183.8l-.942-24.247 6.121 36.723s5.416 35.548 6.121 38.373c.706 2.824 1.885 23.775 1.885 23.775s6.119-10.356 7.061-24.48c.943-14.129-2.119-27.073-2.119-27.073zm-37.665-77.096s-2.237 2.588-4.825 3.177c-2.591.59-5.297.59-5.297.59s-2.238.115-4.473-.355c-2.235-.468-4.826-3.294-4.826-3.294l-3.883 3.883 4.472 4.945s1.413-1.415 2.824-2.238c1.413-.824 5.651-.589 5.651-.589l2.941.236s3.062.118 4.238.707c1.177.588 3.177 1.999 3.177 1.999l4.355-4.234-4.354-4.827zm5.179 7.65s20.715-14.124 26.365-16.008c.708-11.534 4.472-10.593 4.472-10.593l3.062 1.881s11.3-12.005 12.007-12.24c-7.297-6.592-9.417-10.593-9.417-10.593s-4.943-7.768 1.178-16.244c6.119-8.475 9.648-15.773 9.648-15.773s.71-18.597-13.415-13.889c-14.124 4.709-22.363 15.537-22.363 15.537S64.41 74.57 62.526 89.636c-1.882 15.067-1.648 31.78-1.648 31.78l1.412 16.009zm24.954 6.827s18.008-10.358 19.774-10.945c1.767-.589 10.829-4.12 13.889 2.235 3.06 6.358 2 22.835 2 22.835l30.956.589s-2.238-20.482-4.12-25.308c-1.882-4.825-3.413-11.416-14.596-18.126-11.18-6.708-19.185-11.769-19.185-11.769s-4.001-2.355-5.768-3.296c-.235 1.884-12.005 13.418-12.005 13.418s-4.001 4.238-6.004 8.475c-.586 3.06-4.119 2.942-4.119 2.942s-6.825 1.764-9.886 3.531c-3.062 1.766-9.651 6.944-9.651 6.944s4.001 7.65 4.59 8.71c.588 1.057 1.059 3.296-1.06 1.057-2.12-2.235-6.944-8.591-6.944-8.591l-5.532 2.355s3.412 3.412 3.412 8.475c0 5.058-3.412 11.887-3.412 11.887l27.661-15.418zm146.422 33.898l3.296-66.619s.706-39.55-17.187-56.733c-12.946-10.595-17.655-10.595-17.655-10.595s-8.239-3.294-13.182 4.945c-4.943 8.238 5.883 20.481 5.883 20.481s11.773 12.005 3.06 22.128c-2.119 3.295-5.647 6.826-5.647 6.826l.072.104c-5.132-5.342-10.666-4.578-10.666-4.578s-7.69-.628-16.477 10.83c-8.79 11.455-10.515 35.939-10.515 35.939s-1.257 23.54 11.926 32.483c13.183 8.947 25.268-12.083 25.268-12.083s11.927-18.362 8.159-43.787c-.842-5.685-2.228-9.989-3.868-13.257l5.519 8.001s3.529-2.119 5.414.706c3.059 3.531.47 16.008.47 16.008s-2.589 14.125-3.765 18.834c-1.179 4.706-5.182 15.771-5.182 15.771s-3.293 9.182-4.001 12.476c-.707 3.294-3.295 15.537-3.059 17.89.233 2.355 3.293 13.653 3.293 13.653s4.005-13.886 6.121-20.478c2.119-6.593 12.478-36.488 12.478-36.488l-5.179 29.895s-4.237 19.304-5.65 25.894c-1.413 6.593-2.355 20.011-2.117 26.604.234 13.652 7.297 24.716 7.297 24.716s0-10.829.706-16.244c.706-5.414 4.473-28.013 4.473-28.013l8.71-53.438-1.413 34.37-3.297 43.313s-4.473 36.489.942 56.969c5.415 20.481 19.069 21.422 19.069 21.422s-7.297-10.356-8.242-17.42c-.942-7.063-.232-15.771-.232-15.771l5.178-104.754z" fill="#fff"/><path d="M40.516 140.603c2.235 0 4.471.118 5.414.118.941 0 .707 2.237 0 2.237-.706 0-5.414.118-5.414.118s-1.766-1.297 0-2.473zm9.533 3.531H39.808c-1.999 0 .589 2.237.589 2.237s7.768.471 9.652.118c1.884-.355.706-2.355 0-2.355zm.118 3.177c-1.531.118-9.535.118-10.122.118-.589 0-1.295 2.118.586 2.237 1.884.118 9.182.118 9.535.118.354 0 1.532-2.588.001-2.473zm-.118 3.413c-1.649 0-8.004-.232-8.357-.232-.352 0-.706 2.588.589 2.588s6.945-.117 7.65 0c.707.118 1.766-2.356.118-2.356zm7.534-9.533c-1.767-1.293-3.295-1.881-4.473-1.881-1.177 0-3.06.588-5.533 1.177-2.47.589 1.177 2.235 1.177 2.235s3.298.118 4.003.235c.706.118 2.353.471 1.999 1.648-.353 1.177-.353 1.061-1.764 2.591-2.353 2.471-.117 5.768-.117 5.768s3.648 1.764 5.532-.589c1.882-2.355 1.295-5.767 1.295-5.767s-.354-4.122-2.119-5.417zm94.397-69.837c-.471 1.413-2.667 12.397-13.182 11.769-.314 1.57-3.453 4.395-3.453 4.395l-1.882 2.824s-.785 2.041 2.983 2.355c8.473 1.099 14.75-1.57 14.75-1.57l1.884-1.255c-.002.001.469-18.518-1.1-18.518zm-18.126-.469c.471 1.018 2.824 7.688 5.883 8.473 3.06.784 3.06.079 4.711-.628 1.646-.706 4.237-2.667 4.237-2.667s3.139-3.688 2.509-8.788c-.625-3.453-.942-7.69-3.767-10.987-4.236-7.454-13.653-1.57-13.653-1.57s-1.098.629-2.669 2.041c-1.568 1.413-1.489 4.944-1.489 4.944s.549 3.374 2.041 3.531c.942-1.256 1.885-1.962 1.885-1.962s1.645-.707 2.039.393c.392 1.099 1.177 3.373 1.177 3.373s.235 1.57.706 3.846c.472 2.274 2.199.468 2.199.468s1.645 0 .625 1.099-.706 1.256-2.51.785-1.177-2.903-1.177-2.903-1.02-2.039-1.257-2.588c-.47 1.256-2.824 0-2.824 0s.863 2.117 1.334 3.14zm-.393-4.16l.08.706s1.018-.078 1.409-.549c.393-.471 0-1.57 0-1.57h-.549s.237.707-.078 1.178c-.314.469-.862.235-.862.235z" fill="#ffe0aa"/><path d="M158.96 56.221c-.023.02-.372-.266-.776-.637-3.015-2.76-6.595-4.32-10.299-4.483l-.613-.028.859-.27c1.595-.502 2.446-.661 3.923-.73 3.08-.144 5.062.852 6.128 3.078.351.732.911 2.946.778 3.07zm-5.56-1.163c-.526-.134-1.115-.245-1.308-.245-.347 0-.339.016.617 1.257 1.424 1.85 2.641 3.71 3.234 4.945.442.921.531 1.236.57 2.009.034.663.102.958.246 1.069 1.1.838 2.216-2.021 1.68-4.302-.553-2.355-2.355-4.048-5.039-4.733zm.952 7.162c-.029.03.088.54.26 1.135s.397 1.543.501 2.106c.038.204.068.443.094.694.025.333.043.704.058 1.162.017.502.02 1.025.011 1.474-.024.494-.068.926-.139 1.197-.092.352-.151.639-.133.639.186 0 1.185-.53 1.501-.795.691-.58.92-1.189.854-2.262-.065-1.081-.453-2.029-1.381-3.379-.696-1.008-1.551-2.046-1.626-1.971zm-17.12-18.294l.113-.015.114-.015-.015.093a1.272 1.272 0 01-.084.249c-.039.085-.07.164-.07.164 0 .033.03-.005.079-.1.031-.061.136-.231.231-.378.097-.147.171-.27.167-.274-.009-.009-.221.097-.407.203l-.128.073zm-5.881 11.98c.236-.146.413-.355.413-.49 0-.197-.09-.236-.556-.236-.305 0-.747-.079-.981-.177-.164-.069-.293-.099-.364-.092.021-.005.034-.016.054-.016h.093l-.097-.104a1.21 1.21 0 01-.156-.217c-.051-.095-.06-.1-.062-.034-.001.044.009.159.023.257.018.124.036.166.064.137.007-.007.029-.007.042-.012-.011.007-.023.013-.023.026 0 .175.197.535.407.791-.063-.072-.129-.145-.176-.216-.175-.267-.203-.22-.04.065.112.193.333.431.475.509.107.059.212.054.116-.005a1.856 1.856 0 01-.345-.317c.069.08.139.15.203.195.352.246.415.243.91-.064zm-.068-.779l-.399.006.384.025c.431.028.504.063.504.25 0 .162-.167.357-.472.55-.124.079-.205.144-.177.144.075 0 .345-.168.527-.329.133-.118.165-.173.183-.316.019-.149.01-.185-.064-.255-.08-.073-.126-.08-.486-.075zm5.926-10.59c-.851 1.68-1.315 3.911-1.432 6.894l-.029.725-.708-.766c-.76-.822-1.133-1.41-1.284-2.102.083.384.225.73.461 1.095.23.355.512.694 1.117 1.341.158.169.276.308.261.308s-.212-.185-.44-.412a11.301 11.301 0 01-.553-.586c-.397-.494-.745-1.101-.895-1.568-.148-.455-.169-.599-.169-1.104.001-.394.008-.481.055-.671.325-1.312 1.335-2.424 3.207-3.529.23-.136.431-.239.465-.239.049 0 .04.01-.056.062-.185.097-.588.358-.934.603-.424.3-.756.564-1.052.817.738-.617 2.019-1.503 2.214-1.503.051-.001-.051.286-.228.635zm-3.54 3.901c-.001-.14.004-.272.013-.399a5.775 5.775 0 00-.016.387c0 .071.008.131.011.198-.003-.062-.008-.121-.008-.186zm.415-1.751c-.016.027-.039.053-.054.081a2.72 2.72 0 00-.303.889 2.86 2.86 0 01.357-.97zm12.023-2.52c-1.224.501-2.986 1.429-4.167 2.194-1.39.899-3.095 2.587-3.593 3.554l-.331.644c.03-.038.092-.151.221-.396.192-.37.401-.716.449-.745.04-.025.02.015-.093.193-.229.358-.475.851-.57 1.138-.023.067-.046.122-.054.122s-.006-.176.003-.389c.044-1.118.239-2.444.482-3.294.392-1.363.892-2.282 1.645-3.025.196-.193.254-.239.309-.239.005 0 .005.002.009.002-.051-.018-.007-.058.261-.238 1.03-.688 2.272-.905 3.755-.656.649.109 1.327.31 1.988.589.342.143.61.276.565.278-.087.004-1.607.627-1.94.794a.602.602 0 01-.163.065c-.016-.001.107-.068.272-.149.166-.082.49-.229.721-.326.52-.222.699-.308.741-.388-.047.073-.223.154-.51.272zm-7.552 3.03c-.076.265-.155.524-.217.815a18.552 18.552 0 00-.304 2.137 8.414 8.414 0 01-.039.372c-.006.042-.002.054.009.048l.075-.783c.094-.966.256-1.824.476-2.589zm2.278-3.498c-.075.048-.161.085-.231.138-.083.063-.146.094-.176.09.031.008-.006.048-.211.245-.018.018-.033.041-.051.059.209-.204.433-.379.669-.532zm2.274-.666c-.489.004-.668.027-1.055.125-.087.022-.167.063-.252.09.264-.085.537-.153.827-.188.154-.019.318-.022.48-.027zm2.571.381c.731.244 1.015.354.938.479.014-.027.012-.053.003-.084-.035-.113-.976-.451-1.719-.618a5.402 5.402 0 00-1.299-.157c.68.029 1.393.152 2.077.38zm-11.51 9.919c-.05.132-.097.186-.193.226-.096.04-.14.055-.141.041.008.036-.354.163-.669.234-.159.036-.863.067-.987.043a3.618 3.618 0 01-.23-.058c-1.041-.279-1.7-1.473-1.704-3.088-.001-.742.111-1.293.32-1.568l.063-.082.117.192c.156.259.159.284.024.139-.068-.072-.134-.122-.163-.122-.018 0-.032.015-.048.024.099-.052.241.117.47.49.619 1.006 1.193 1.654 2.179 2.46.671.548.887.796.863.99.011-.101-.032-.21-.143-.351a2.516 2.516 0 00-.323-.329c-.242-.2-.186-.211.08-.018.5.363.588.505.485.777zm-3.816-2.037a4.672 4.672 0 01-.018-.991c.03-.32.06-.556.096-.72a3.133 3.133 0 00-.074.443c-.058.511-.064.704-.038 1.044.007.077.025.148.034.224zm.951 2.079a2.024 2.024 0 01-.171-.175c.04.044.073.098.115.138.017.017.039.022.056.037zm1.119.437c.15.01.324 0 .498-.016-.187.017-.38.018-.566.002.025.002.042.012.068.014zm1.643-.545c-.049.275-.547.469-1.11.525.311-.033.616-.096.777-.178.073-.038.092-.041.102-.015.001-.013.033-.048.103-.114a.376.376 0 00.128-.218zm1.752-2.293c-.072 1.327-.07 1.187-.01 1.229.029.02.059.038.059.038.003 0 .004-.353.003-.785 0-.431.005-.946.012-1.144.018-.556-.022-.135-.064.662zm10.616-2.838a22.048 22.048 0 012.249-.115c1.88.001 3.236.224 4.859.796.578.205 1.071.35 1.098.325.124-.126-.963-1.71-1.665-2.427-1.337-1.363-2.944-1.867-4.677-1.467-1.671.386-4.006 1.831-5.561 3.442-.404.419-.625.718-.491.664.949-.378 2.73-.927 3.616-1.123.191-.034.381-.066.572-.095z" fill="#592314"/><path d="M179.936 320.537c-1.114.427-2.016.338-2.005-.2.012-.538.894-3.486 1.963-6.552 4.663-13.382 8.302-80.074 4.813-88.195-.751-1.747-1.202 2.657-1.264 12.329-.088 13.848-3.557 56.541-4.851 59.696-.306.748-.415-18.515-.242-42.807.295-41.441.516-44.99 3.582-57.49 1.966-8.024 3.672-12.597 4.285-11.498.563 1.003 1.762 10.973 2.665 22.156 3.677 45.477-1.426 109.676-8.946 112.561zm-61.998-149.981a21.666 21.666 0 00-.205-2.363c-.259-1.71-.484-1.062-.559 1.33-.219.219-.348.879-.309 1.823.034.83.14 1.304.295 1.42.055 2.629.28 3.644.554 2.223.204-1.055.282-2.661.233-4.223 0-.072-.004-.141-.009-.21zm-6.788-24.908l-4.029-4.314.593 29.218c.463 22.85 1.111 30.841 2.974 36.665 2.032 6.357 2.539 7.017 3.466 4.513 1.623-4.385 3.128-44.926 2.003-53.931-.749-5.992-1.927-8.851-5.007-12.151zm47.736-54.979c0 2.601-9.712 5.276-16.082 4.429-4.645-.617-5.795-.458-4.302.593 1.616 1.139 1.169 1.439-2.167 1.456-2.563.013-5.211-1.09-6.78-2.822-1.985-2.194-3.617-2.674-7.149-2.101-8.537 1.385-14.334 7.483-9.045 9.513 1.121.429 2.039.206 2.039-.499s3.162.583 7.026 2.862c3.864 2.278 11.814 6.55 17.666 9.492 11.221 5.641 13.063 7.231 6.903 5.958-3.438-.712-3.357-.555 1.02 1.955 2.616 1.501 4.888 2.754 5.048 2.785.161.031.932-1.139 1.714-2.599 1.248-2.332.379-3.36-7.086-8.392-4.68-3.153-8.816-6.128-9.189-6.609-.374-.481-3.432-2.193-6.795-3.802-5.326-2.548-10.61-7.792-9.238-9.166.256-.255 3.509 1.527 7.23 3.961 3.72 2.435 10.74 6.158 15.598 8.276 4.857 2.117 9.212 4.429 9.676 5.139 1.094 1.674 5.574.799 6.248-1.222.301-.904-3.654-3.004-9.401-4.988l-9.921-3.427 12.911-.162c12.116-.153 13.188-.401 17.438-4.036 2.931-2.508 3.983-4.209 2.98-4.828-2.551-1.579-16.342-3.067-16.342-1.766z" fill="#7f1416"/><path d="M180.027 100.967l10.031 1.724-4.076 24.914 12.849 2.038-1.724 11.594-13.005-2.035-3.762 26.638-10.343-1.41 3.605-26.64-14.573-2.82 2.038-11.44 15.199 2.351zM68.108 114.552s1.411-18.334 4.938-27.032c3.525-8.697 10.105-16.452 15.511-22.094 5.405-5.641 6.58 2.117 5.405 4.935-3.29.707-.939-.233-11.045 6.583-10.107 6.817-14.809 37.608-14.809 37.608M202.79 70.597s7.99 1.177 15.749 11.754c7.755 10.576 10.106 32.905 10.106 32.905s-1.412-22.798-5.641-30.321c-4.231-7.521-10.576-14.807-10.576-14.807s-2.351-2.585-5.407-4.936-4.468-.47-4.701.47c-.235.94.47 4.935.47 4.935"/><path d="M133.981 83.158c.5.306.961.56 1.022.564.22.01.108-2.695-.182-4.39-.545-3.19-1.556-5.784-2.976-7.64-1.979-2.586-3.143-4.399-4.845-7.546-.529-.98-3.309-6.781-2.74-9.101 3.889-15.847 22.992-20.015 35.672-7.785 7.284 7.026 6.28 14.712 6.28 14.712-.143 2.165-.419 3.662-.971 5.238-.969 2.775-2.936 5.399-5.362 7.155l-.697.505-.059 1.162c-.038.736-.166 1.381-.349 1.762-.392.807-1.546 1.943-2.228 2.19-.305.109-.525.27-.487.357.365.849.433 1.359.278 2.086-.09.427-.212.894-.27 1.04-.09.229.078.201 1.227-.2 4.052-1.411 8.176-3.978 11.45-7.125 2.66-2.557 4.325-4.831 5.801-7.92 2.087-4.374 3.044-9.398 2.637-13.859-.194-2.119-.893-5.311-1.58-7.212-2.472-6.839-7.45-12.321-14.122-15.552-6.678-3.232-13.285-3.728-20.054-1.503-4.056 1.334-8.18 3.774-11.163 6.608-1.815 1.723-4.067 5.043-5.814 8.569-2.878 5.808-4.032 10.82-3.867 16.791.077 2.731.284 3.998 1.036 6.342 1.822 5.676 6.323 11.047 12.363 14.752zm27.209 84.915l1 1.394-.255.669c-.141.368-.341.741-.447.828-.225.187-3.937.321-4.792.173-.522-.09-.635-.19-.968-.853-.355-.708-.386-.954-.515-4.268-.152-3.888-.107-4.238.654-5.158.368-.446.57-.564.968-.564.473 0 .517.045.755.789.467 1.457 2.592 5.583 3.6 6.99zm-25.672-7.327h-4.872l-.465.564c-.255.309-.529.794-.607 1.075-.168.612-.043 6.062.166 7.166.083.437.343 1.036.605 1.393l.46.625 2.5-.041 2.502-.04.33-.692c.433-.905.646-2.691.646-5.416 0-2.358-.054-2.62-.79-3.844l-.475-.79zm17.441.27l-.31-.421h-2.35c-2.247 0-2.362.015-2.647.338-.961 1.086-1.013 1.447-.834 5.671.138 3.252.21 3.644.82 4.543l.28.413 2.431-.002c1.337-.001 2.513-.054 2.612-.118.681-.432 1.084-2.825 1.091-6.456.004-1.859-.023-2.049-.389-2.772-.216-.426-.533-.965-.704-1.196zm-8.852-.428l-2.492.041-2.492.041-.457.653-.457.653.008 3.479c.009 3.845.116 4.53.844 5.414l.447.541h2.381c2.361 0 2.385-.002 2.677-.374.485-.617.753-2.216.848-5.057.098-2.947.036-3.298-.819-4.63l-.488-.761zm-19.646.041l-2.443.041-.441.545c-.242.3-.499.799-.569 1.109-.069.31-.072 2.092-.005 3.961.126 3.487.246 4.159.87 4.862.205.231.542.262 2.76.262 2.517 0 2.528-.001 2.769-.368.563-.859.702-1.754.779-4.984l.074-3.175-.475-.882c-.825-1.531-.55-1.418-3.319-1.371zM57.893 59.201c-.322-2.446-.421-2.682-.696-3.944-.352-1.616-.907-3.521-1-3.428-.038.038-.266.657-.509 1.376-.825 2.456-1.822 3.815-2.802 3.816-.383.001-1.152-.352-1.592-.731-.237-.203-1.08-1.227-1.745-2.561-1.18-2.363-2.108-5.665-2.581-9.175-.246-1.83-.241-8.05.008-9.819.103-.732.162-1.358.129-1.389-.031-.033-.296.296-.588.73-2.071 3.085-3.442 6.408-4.201 10.184-.294 1.458-.347 2.19-.349 4.8l-.003 3.079 1.797 9.044c.988 4.974 2.269 9.514 1.62 10.845l-1.807-.791c-1.064-.466-1.978-.846-2.031-.846-.053 0 .146.481.442 1.069a52.589 52.589 0 012.267 5.24c.41 1.131.948 2.965 1.231 4.129.944 6.555-1.428 27.818-1.945 32.299-.418 3.614-.468 4.449-.399 6.685.104 3.353.565 5.697 1.787 9.087.254.703.656 1.666.893 2.141.237.475.461.864.495.864.098 0 6.153-3.178 6.286-3.3.067-.06.016-1.15-.112-2.422-.517-5.184-.652-9.947-.374-13.309.382-4.636 1.9-15.552 2.695-19.37.828-3.983 2.574-15.239 3.153-20.332.459-4.043.429-10.17-.069-13.971zm122.676 43.822l6.875 1.074-3.484 24.835 14.131 2.393-.811 7.16-14.471-2.487-4.24 26.225-7.125-.626 4.076-26.075-13.673-2.55.769-7.036 13.953 1.786z" fill="#b49900"/><path d="M139.25 75.93c-.235.548 1.175.47 1.175.47s1.254-.861 2.039-1.488c.784-.627 1.724-.627 1.724-.627s-.784-1.019-2.038-.784c-1.255.234-3.29 1.175-3.29 1.175s-1.334 1.724.39 1.254m7.6-14.964c-.548-.549-1.803-1.254-2.977-1.411-1.176-.157-3.056.391-3.999.861-.939.47-1.174.313-2.271 1.097-1.096.782-.157 1.723-.157 1.723s1.959 2.585 4.935 1.882c2.979-.707 2.979-2.978 2.979-2.978h1.724c.002 0 .314-.627-.234-1.174zm-3.447 2.74c-.706.47-2.508.47-2.508.47v-.627s1.254.157 1.959-.391c.705-.549.862-1.332.862-1.332l.627-.078c-.001.001-.236 1.488-.94 1.958z"/><path d="M128.992 92.326c-.293-.6-.678-1.646-.625-1.699.015-.015 2.345 1.37 5.178 3.078 2.833 1.708 5.191 3.129 5.243 3.158.1.058.097.058-.627.025-1.286-.059-3.096-.306-4.158-.568-1.121-.276-2.171-.725-2.787-1.189-.884-.666-1.658-1.642-2.224-2.805zm25.438 18.552c-15.733-6.919-20.353-8.094-31.572-16.978 1.017 1.131-1.312 7.509 31.572 16.978zm-4.396 8.459c.05.048-.193-.01-1.18-.281-4.027-1.108-8.394-2.533-11.845-3.869-6.703-2.596-11.513-5.358-16.466-9.458a61.412 61.412 0 01-3.692-3.369l-.507-.515-.359-.394c-.197-.217-.344-.394-.326-.394.043 0 4.792 2.789 4.792 2.789 1.877 1.1 4.684 2.734 6.236 3.63.548.317 1.057.612 1.489.865 4.166 2.266 11.454 6.257 11.49 6.244.03-.01 5.427 2.5 7.841 3.597 1.38.623 2.517 1.145 2.527 1.155zm-30.879-15.647c-.037-.007-.056-.002-.067.009-.002.002.002.006 0 .008a.16.16 0 01.067-.017zm65.297 121.157c.717 35.5-6.25 93.517-8.337 94.218 4.762 1.032 13.337-62.385 8.337-94.218z" fill="#a81f23"/></svg>